<svg width="221" height="193" viewBox="0 0 221 193" fill="none" xmlns="http://www.w3.org/2000/svg">
<path d="M104.342 33.8627C98.2803 32.2985 90.7463 24.6429 77.3157 21.3754C66.2886 18.6926 49.0942 19.9645 44.1855 21.4898C36.4398 23.6267 29.226 27.358 23.006 32.4446C16.7861 37.5312 11.6972 43.861 8.06544 51.0284C3.48261 59.7208 1.3002 69.478 1.74306 79.2945C1.65026 84.9123 2.36276 90.5144 3.85884 95.9301C4.40386 98.0968 5.10023 100.223 5.94282 102.292C14.0493 121.971 27.5342 138.97 44.8533 151.342L51.8983 156.637C66.2875 166.662 81.8438 174.898 98.2238 181.162C109.299 185.394 120.638 188.902 132.167 191.666C142.062 185.121 151.515 177.93 160.463 170.14C173.723 158.677 185.528 145.631 195.615 131.296L200.423 123.91C212.467 106.362 219.325 85.7759 220.212 64.5104C220.296 62.2778 220.223 60.042 219.995 57.8195C219.548 52.2187 218.301 46.7106 216.293 41.4631C213.351 32.0874 207.963 23.6653 200.684 17.0646C194.82 11.5718 187.873 7.36442 180.288 4.71192C172.704 2.05942 164.649 1.02027 156.64 1.66104C148.38 2.07522 140.286 4.13056 132.829 7.70709C125.373 11.2836 118.704 16.3097 113.211 22.4918C109.916 26.0056 106.948 29.8115 104.342 33.8627C98.5683 43.0102 94.2431 52.9954 91.5199 63.4644L104.342 33.8627Z" fill="#DADADA"/>
<path d="M104.342 33.8627C106.948 29.8115 109.916 26.0056 113.211 22.4918C118.704 16.3097 125.373 11.2836 132.829 7.70709C140.286 4.13056 148.38 2.07522 156.64 1.66104C164.649 1.02027 172.704 2.05942 180.288 4.71192C187.873 7.36442 194.82 11.5718 200.684 17.0646C207.963 23.6653 213.351 32.0874 216.293 41.4631C218.301 46.7106 219.548 52.2187 219.995 57.8195C220.223 60.042 220.296 62.2778 220.212 64.5104C219.325 85.7759 212.467 106.362 200.423 123.91L195.615 131.296C185.528 145.631 173.723 158.677 160.463 170.14C151.515 177.93 142.062 185.121 132.167 191.666C120.638 188.902 109.299 185.394 98.2238 181.162C81.8438 174.898 66.2875 166.662 51.8983 156.637L44.8533 151.342C27.5342 138.97 14.0493 121.971 5.94282 102.292C5.10023 100.223 4.40386 98.0968 3.85884 95.9301C2.36276 90.5144 1.65026 84.9123 1.74306 79.2945C1.3002 69.478 3.48261 59.7208 8.06544 51.0284C11.6972 43.861 16.7861 37.5312 23.006 32.4446C29.226 27.358 36.4398 23.6267 44.1855 21.4898C49.0942 19.9645 66.2886 18.6926 77.3157 21.3754C90.7462 24.6429 98.2803 32.2985 104.342 33.8627ZM104.342 33.8627C98.5683 43.0102 94.2431 52.9954 91.5199 63.4644" stroke="#DADADA" stroke-width="1.4" stroke-linecap="round" stroke-linejoin="round"/>
</svg>
