<svg width="320" height="536" viewBox="0 0 320 536" fill="none" xmlns="http://www.w3.org/2000/svg">
<path fill-rule="evenodd" clip-rule="evenodd" d="M36 0C16.1177 0 0 16.1178 0 36V536H17V38C17 25.8497 26.8497 16 39 16H79.6622C81.4926 16.3668 82.8297 17.9781 82.8297 19.8679V26.9408C82.8297 33.5921 88.2216 38.9841 94.873 38.9841H113.222H151.427H169.073H207.278H225.627C232.278 38.9841 237.67 33.5921 237.67 26.9408V19.8679C237.67 17.9781 239.007 16.3668 240.838 16H282C294.15 16 304 25.8497 304 38V536H320V36C320 16.1178 303.882 0 284 0H36Z" fill="#DADADA"/>
</svg>
