<svg width="216" height="213" viewBox="0 0 216 213" fill="none" xmlns="http://www.w3.org/2000/svg">
<path d="M104.964 1.5406C106.56 -0.320815 109.44 -0.320812 111.036 1.54061L127.2 20.3883C128.312 21.6857 130.126 22.1328 131.715 21.5011L154.786 12.3238C157.064 11.4175 159.614 12.7559 160.163 15.146L165.716 39.3462C166.098 41.0121 167.497 42.2511 169.196 42.4297L193.89 45.0253C196.328 45.2816 197.964 47.6519 197.339 50.0231L191.01 74.032C190.574 75.6847 191.237 77.4316 192.659 78.3798L213.317 92.1535C215.357 93.5138 215.705 96.3729 214.049 98.182L197.287 116.499C196.133 117.76 195.908 119.615 196.727 121.115L208.618 142.912C209.792 145.065 208.771 147.758 206.465 148.59L183.11 157.02C181.502 157.6 180.441 159.138 180.469 160.847L180.868 185.673C180.908 188.124 178.752 190.034 176.323 189.699L151.726 186.31C150.033 186.077 148.379 186.945 147.609 188.471L136.426 210.639C135.321 212.829 132.525 213.518 130.529 212.093L110.325 197.661C108.934 196.667 107.066 196.667 105.675 197.661L85.4707 212.093C83.4753 213.518 80.6789 212.829 79.5745 210.639L68.3912 188.471C67.6214 186.945 65.9671 186.077 64.2739 186.31L39.6771 189.699C37.2479 190.034 35.0921 188.124 35.1316 185.673L35.5314 160.847C35.5589 159.138 34.4976 157.6 32.8899 157.02L9.53545 148.59C7.22893 147.758 6.20764 145.065 7.38203 142.912L19.2733 121.115C20.0918 119.615 19.8666 117.76 18.7128 116.499L1.95082 98.182C0.295389 96.3729 0.642547 93.5138 2.68281 92.1535L23.3413 78.3798C24.7634 77.4316 25.4259 75.6847 24.9902 74.032L18.6608 50.023C18.0357 47.6519 19.6718 45.2816 22.1105 45.0253L46.8037 42.4297C48.5035 42.2511 49.902 41.0121 50.2842 39.3462L55.8373 15.146C56.3857 12.7559 58.9359 11.4175 61.2144 12.3238L84.2854 21.5011C85.8735 22.1328 87.6876 21.6857 88.8002 20.3883L104.964 1.5406Z" fill="#DADADA"/>
</svg>
